<?xml version="1.0" standalone="no"?><!DOCTYPE svg PUBLIC "-//W3C//DTD SVG 1.1//EN" "http://www.w3.org/Graphics/SVG/1.1/DTD/svg11.dtd"><svg t="1586856580982" class="icon" viewBox="0 0 1024 1024" version="1.1" xmlns="http://www.w3.org/2000/svg" p-id="2113" xmlns:xlink="http://www.w3.org/1999/xlink" width="200" height="200"><defs><style type="text/css"></style></defs><path d="M906.50703969 345.99481156c-37.48744125-9.896685-125.65790438-9.59678531-254.61470344-13.19557968a435.45412313 435.45412313 0 0 0 7.49748844-98.66694657C659.68972437 126.7682525 581.11604656 32 511.83925344 32a89.96986031 89.96986031 0 0 0-89.96985938 89.96986031c0 59.97990656-19.19356969 164.64484406-119.95981406 217.72706157l-31.48945031 15.59477531H271.91962719A95.06815219 95.06815219 0 0 0 211.93972063 331.89953375H121.96986031a89.96986031 89.96986031 0 0 0-89.96986031 89.96986031v479.83925344a89.96986031 89.96986031 0 0 0 89.96986031 89.96986031h89.96986031a89.96986031 89.96986031 0 0 0 80.07317532-51.88261969l7.19758875 1.79939719H301.90958c17.3941725 4.19859375 50.38312125 12.29588062 121.45931156 29.98995375A892.20111281 892.20111281 0 0 0 601.80911375 991.67850781h164.04504469a113.06212406 113.06212406 0 0 0 107.36403375-57.88060968A212.62876969 212.62876969 0 0 0 886.71367063 901.7086475a99.86654438 99.86654438 0 0 0-1e-8-52.78231781 134.35499062 134.35499062 0 0 0 49.18352344-77.37408 117.5606175 117.5606175 0 0 0 0-81.8725725 141.25268062 141.25268062 0 0 0 40.1865375-83.07217031 112.76222438 112.76222438 0 0 0-11.69608125-71.07619032 104.36503781 104.36503781 0 0 0 27.2908575-65.07819843v-6.29788969-14.99497688a110.96282719 110.96282719 0 0 0-85.17146812-103.16544zM241.92967344 901.7086475a29.98995375 29.98995375 0 0 1-29.98995281 29.98995375H121.96986031a29.98995375 29.98995375 0 0 1-29.98995375-29.98995375V421.86939406a29.98995375 29.98995375 0 0 1 29.98995375-29.98995375h89.96986031a29.98995375 29.98995375 0 0 1 29.98995282 29.98995375z m689.76892781-433.65472594C931.69860125 481.84930062 924.20111281 511.83925344 871.71869469 511.83925344h-59.9799075a14.99497688 14.99497688 0 0 0 0 29.98995375h58.18051031a45.58472906 45.58472906 0 0 1 47.98392469 55.18151437A65.37809812 65.37809812 0 0 1 853.12492344 661.78902031H781.74883438a14.99497688 14.99497688 0 0 0-1e-8 29.98995375h59.97990657c50.68302094 0 46.18452844 38.68704 38.98693969 61.47940406-9.59678531 29.98995375-15.29487656 58.18050937-79.17347719 58.18051032H751.75888062a14.99497688 14.99497688 0 0 0 0 29.98995281h47.08422657a31.78935094 31.78935094 0 0 1 29.98995375 42.28583437 159.54655219 159.54655219 0 0 1-8.39718657 21.59276625 53.98191563 53.98191563 0 0 1-54.58171593 26.09125969H601.80911375a844.51708688 844.51708688 0 0 1-166.14434156-19.19357062c-124.45830656-29.98995375-131.05609594-29.98995375-138.85348407-33.2888475 0 0-25.49146031-4.19859375-25.49146031-26.39115938v-413.86135687a32.38914938 32.38914938 0 0 1 23.69206313-29.98995282l6.89768906-3.29889468c137.05408687-56.68101188 179.93972063-179.93972063 179.93972063-283.40505938a29.98995375 29.98995375 0 0 1 29.98995281-29.98995375c31.78935094 0 87.87056344 63.57870094 87.87056343 142.45227844A359.87944031 359.87944031 0 0 1 571.81916094 391.87944031c299.89953375 0 297.80023687 4.19859375 324.19139531 11.3961825A45.88462875 45.88462875 0 0 1 931.69860125 449.16025156v18.89367z" p-id="2114"></path><path d="M166.95479 811.73878719A44.98492969 44.98492969 0 1 0 211.93972063 856.72371781 44.98492969 44.98492969 0 0 0 166.95479 811.73878719z m0 59.9799075a14.99497688 14.99497688 0 1 1 14.99497688-14.99497688 14.99497688 14.99497688 0 0 1-14.99497688 14.99497688z" p-id="2115"></path></svg>