<?xml version="1.0" standalone="no"?><!DOCTYPE svg PUBLIC "-//W3C//DTD SVG 1.1//EN" "http://www.w3.org/Graphics/SVG/1.1/DTD/svg11.dtd"><svg t="1586856566166" class="icon" viewBox="0 0 1280 1024" version="1.1" xmlns="http://www.w3.org/2000/svg" p-id="1705" xmlns:xlink="http://www.w3.org/1999/xlink" width="250" height="200"><defs><style type="text/css"></style></defs><path d="M704.02471897 882.78857422c-12.7922058 0-23.71810889-4.50508117-32.77152968-13.64501953-9.05960107-9.01016235-13.59558082-19.95460487-13.59558153-32.6911924 0-13.13209511 4.57305933-24.07653833 13.76861596-32.95692466l245.12832642-245.09124757-722.35794044 0c-12.79838538 0-23.6933899-4.50508117-32.81478882-13.64501953-9.02252221-9.01016235-13.56468224-19.94842529-13.56468224-32.69119239 0-12.87872339 4.54216003-23.81698632 13.57086182-32.82714867 9.11521935-9.01016235 20.01022315-13.51524353 32.80242896-13.51524353L916.54837057 465.72558594l-245.12214685-245.09124757c-9.19555664-9.01016235-13.76861596-19.95460487-13.76861596-32.95074439 0-12.8725431 4.53598046-23.81698632 13.59558153-32.82714867 9.05342078-9.13993836 19.98550415-13.64501953 32.77152968-13.64501953 13.0517578 0 24.03945947 4.50508117 32.95692467 13.38546753L1061.40928623 478.98127747C1070.32057187 488.37458825 1074.78857419 499.45498633 1074.78857419 511.93820214c0 12.60681153-4.46800232 23.55125404-13.37928796 32.95074439l-324.42764259 324.37820459C727.80462643 878.15371704 716.82310507 882.66497779 704.02471897 882.66497779L704.02471897 882.78857422z" p-id="1706"></path></svg>